PathFileType	4	(X/Y/Z)	Walk5.trc
DataRate	CameraRate	NumFrames	NumMarkers	Units	OrigDataRate	OrigDataStartFrame	OrigNumFrames
200.000000	200.000000	5	59	mm	200.000000	537	826
Frame#	Times		RCAR		LFHD		RFHD		RWRU		LMT1		RACR1		LTH3		RASI		LTB1		RUA1		RFA1		LACR1		LLFC		LUA1		LTB4		LTB3		LToe		RTH2		STRN		LTH4		RBHD		LTH2		LElbow		RTH4		RLFC		CLAV		LASI		RTH3		LWRU		LFA1		RBack		C7		RTH1		RMT1		RMT5		LPSI		LCAR		RCAL		RToe		RLMAL		LTH1		LBHD		RPSI		RTB2		RTB4		RTB1		RElbow		RTB3		RMMAL		LTB2		LMT5		LWRR		RWRR		RElbowM		LLMAL		LMMAL		T10		LCAL		LElbowM
			X1	Y1	Z1	X2	Y2	Z2	X3	Y3	Z3	X4	Y4	Z4	X5	Y5	Z5	X6	Y6	Z6	X7	Y7	Z7	X8	Y8	Z8	X9	Y9	Z9	X10	Y10	Z10	X11	Y11	Z11	X12	Y12	Z12	X13	Y13	Z13	X14	Y14	Z14	X15	Y15	Z15	X16	Y16	Z16	X17	Y17	Z17	X18	Y18	Z18	X19	Y19	Z19	X20	Y20	Z20	X21	Y21	Z21	X22	Y22	Z22	X23	Y23	Z23	X24	Y24	Z24	X25	Y25	Z25	X26	Y26	Z26	X27	Y27	Z27	X28	Y28	Z28	X29	Y29	Z29	X30	Y30	Z30	X31	Y31	Z31	X32	Y32	Z32	X33	Y33	Z33	X34	Y34	Z34	X35	Y35	Z35	X36	Y36	Z36	X37	Y37	Z37	X38	Y38	Z38	X39	Y39	Z39	X40	Y40	Z40	X41	Y41	Z41	X42	Y42	Z42	X43	Y43	Z43	X44	Y44	Z44	X45	Y45	Z45	X46	Y46	Z46	X47	Y47	Z47	X48	Y48	Z48	X49	Y49	Z49	X50	Y50	Z50	X51	Y51	Z51	X52	Y52	Z52	X53	Y53	Z53	X54	Y54	Z54	X55	Y55	Z55	X56	Y56	Z56	X57	Y57	Z57	X58	Y58	Z58	X59	Y59	Z59

537	2.685	-453.6	788.32	302.76	-341.87	1574.2	-74.471	-337.76	1574.1	22.968	-497.89	839.59	316.8	-301.08	33.912	-49.069	-474.55	1377.9	148.37	-399.05	560.93	-191.3	-395.76	957.06	152.91	-379.37	335.34	-64.041	-512.37	1235.2	238.24	-485.37	947.99	290.26	-456.91	1358.4	-209.21	-406.59	486.88	-171.33	-481.5	1211.7	-283.24	-388.64	250.46	-70.028	-391.96	164.58	-72.133	-258.01	30.911	-48.479	-421.28	624.36	183.36	-327.06	1224.2	-19.95	-400.04	644.23	-220.13	-508.25	1570.7	38.491	-348.15	653.62	-190.45	-555.02	1075.9	-313.28	-480.14	624.38	195.77	-487.27	452.41	179.01	-390.16	1339.4	-26.954	-374.3	967.39	-193.67	-481.68	538.36	184.81	-565.06	835.01	-372.81	-521.7	945.95	-343.89	-612.39	1315	70.304	-552.18	1414	-23.807	-468.22	707.78	207.67	-695.04	63.954	59.897	-723.42	62.473	140.86	-616.59	983.57	-129.98	-537.82	780.9	-372.62	-824.37	198.35	81.798	-667.07	34.856	71.995	-769.33	183.66	134.06	-397.83	724.77	-248.07	-494.36	1558.6	-96.547	-640.44	976.31	3.2074	-590.07	299.94	156.11	-578.11	286.58	99.487	-505.21	331.97	101.66	-556.78	1072.7	275.47	-644.07	231.07	92.904	-738.47	176.98	54.106	-381.92	253.21	-131.15	-314.14	26.931	-139.9	-513.64	824.47	-319.26	-455.43	845.77	257.13	-587.43	1056.9	189.16	-430.73	68.248	-136.63	-427.26	71.708	-51.333	-605.6	1083.3	-37.314	-488.48	28.824	-98.407	-570.48	1042.2	-211.72
538	2.69	-452.87	788.03	301.16	-337.34	1574.7	-75.109	-333.3	1574.6	22.319	-496.54	839.82	315.62	-301.09	33.884	-49.057	-470.78	1378.6	147.8	-398.16	560.65	-191.41	-391.61	957.88	152.96	-379.5	335.32	-63.883	-509.12	1236	237.54	-483.22	948.15	289.18	-452.39	1358.7	-209.94	-405.75	486.75	-171.4	-476.3	1212	-284.05	-388.65	250.4	-69.94	-391.97	164.5	-72.067	-257.94	30.896	-48.567	-414.27	626.23	183.96	-322.72	1224.9	-20.612	-398.87	643.94	-220.2	-503.8	1571.2	37.725	-346.67	653.03	-190.95	-549.21	1075.9	-314.34	-473.13	625.47	196.3	-478.22	453.71	179.89	-385.76	1340	-27.552	-370.1	967.81	-193.94	-473.56	539.41	185.55	-557.1	834.81	-373.47	-514.79	946.14	-344.56	-608.23	1315.5	69.19	-547.73	1414.5	-24.744	-462.29	709.01	208.16	-685.22	65.459	60.696	-714.16	64.554	141.47	-612.38	984.04	-130.09	-529.33	781	-373.13	-815.13	199.73	80.784	-657.33	36.344	73.285	-760.33	185.44	133.53	-396.28	724.41	-248.25	-489.82	1559	-97.303	-636.16	976.65	3.1241	-581.12	301.46	156.52	-569.05	287.81	99.594	-495.88	333.32	102.52	-553.77	1073.4	274.56	-634.8	232.53	93.121	-728.92	178.44	53.822	-381.73	253.15	-131.01	-314.19	26.956	-139.85	-505.79	824.83	-319.75	-454.22	845.74	255.79	-584.45	1057.9	188.24	-430.76	68.251	-136.55	-427.3	71.675	-51.303	-601.21	1083.8	-37.759	-488.55	28.812	-98.34	-566.72	1042.3	-212.86
539	2.695	-452.11	787.73	299.61	-332.83	1575.2	-75.712	-328.86	1575.2	21.707	-495.16	840.04	314.48	-301.1	33.857	-49.048	-466.98	1379.3	147.28	-397.13	560.39	-191.44	-387.51	958.62	153.03	-379.64	335.31	-63.725	-505.88	1236.7	236.86	-481.06	948.28	288.14	-447.87	1359	-210.64	-404.89	486.64	-171.45	-471.14	1212.2	-284.84	-388.69	250.37	-69.845	-392.01	164.44	-71.986	-257.88	30.877	-48.653	-407.32	628.16	184.56	-318.4	1225.6	-21.221	-397.63	643.7	-220.2	-499.35	1571.6	37.002	-345.17	652.51	-191.39	-543.39	1075.8	-315.4	-466.17	626.64	196.8	-469.24	455.09	180.73	-381.37	1340.5	-28.12	-365.93	968.14	-194.21	-465.5	540.55	186.25	-549.07	834.6	-374.12	-507.84	946.32	-345.21	-604.06	1316	68.132	-543.27	1415	-25.61	-456.37	710.29	208.65	-674.94	66.819	61.361	-704.35	66.386	141.98	-608.2	984.49	-130.21	-520.76	781.11	-373.66	-805.63	200.67	79.81	-647.06	37.8	74.388	-751.03	186.86	133	-394.75	724.09	-248.35	-485.29	1559.5	-98.016	-631.91	976.97	3.0325	-572.04	302.91	156.93	-559.84	288.96	99.71	-486.46	334.69	103.37	-550.75	1074.1	273.7	-625.31	233.82	93.342	-719.08	179.64	53.518	-381.56	253.11	-130.87	-314.24	26.975	-139.82	-497.88	825.19	-320.25	-452.98	845.7	254.51	-581.48	1058.9	187.37	-430.79	68.259	-136.47	-427.35	71.654	-51.28	-596.85	1084.3	-38.204	-488.62	28.802	-98.276	-563.04	1042.4	-214
540	2.7	-451.31	787.44	298.11	-328.32	1575.7	-76.28	-324.43	1575.7	21.131	-493.75	840.24	313.39	-301.11	33.833	-49.043	-463.17	1379.9	146.79	-395.96	560.17	-191.4	-383.45	959.27	153.1	-379.8	335.33	-63.577	-502.62	1237.3	236.18	-478.88	948.4	287.15	-443.36	1359.3	-211.31	-404.01	486.55	-171.49	-466.03	1212.4	-285.6	-388.74	250.36	-69.748	-392.07	164.4	-71.897	-257.83	30.855	-48.739	-400.4	630.14	185.15	-314.09	1226.2	-21.774	-396.32	643.49	-220.13	-494.91	1572.1	36.323	-343.61	652.06	-191.75	-537.57	1075.7	-316.44	-459.25	627.88	197.27	-460.34	456.52	181.51	-377	1341	-28.659	-361.78	968.37	-194.47	-457.51	541.78	186.92	-541	834.38	-374.76	-500.87	946.49	-345.84	-599.9	1316.4	67.132	-538.79	1415.5	-26.407	-450.47	711.61	209.13	-664.2	68.023	61.885	-694.01	67.952	142.37	-604.04	984.9	-130.34	-512.1	781.24	-374.2	-795.89	201.16	78.899	-636.26	39.205	75.298	-741.41	187.91	132.49	-393.23	723.82	-248.37	-480.77	1559.9	-98.688	-627.68	977.29	2.9309	-562.83	304.26	157.32	-550.48	290.04	99.849	-476.95	336.06	104.2	-547.72	1074.7	272.88	-615.6	234.96	93.565	-708.96	180.58	53.202	-381.41	253.08	-130.72	-314.28	26.988	-139.79	-489.93	825.55	-320.74	-451.7	845.65	253.28	-578.51	1059.8	186.56	-430.82	68.272	-136.4	-427.39	71.644	-51.266	-592.5	1084.8	-38.647	-488.69	28.792	-98.216	-559.41	1042.5	-215.14
541	2.705	-450.47	787.16	296.67	-323.83	1576.1	-76.813	-320.01	1576.1	20.589	-492.3	840.44	312.35	-301.12	33.811	-49.042	-459.33	1380.4	146.34	-394.64	559.99	-191.29	-379.44	959.86	153.17	-379.95	335.37	-63.447	-499.34	1237.9	235.51	-476.69	948.49	286.21	-438.85	1359.5	-211.96	-403.13	486.47	-171.53	-460.94	1212.6	-286.32	-388.8	250.37	-69.655	-392.15	164.38	-71.802	-257.77	30.83	-48.822	-393.51	632.16	185.73	-309.79	1226.7	-22.267	-394.93	643.31	-220	-490.48	1572.5	35.685	-341.99	651.69	-192.06	-531.75	1075.6	-317.46	-452.35	629.19	197.71	-451.51	458	182.24	-372.64	1341.4	-29.17	-357.66	968.51	-194.73	-449.59	543.09	187.54	-532.86	834.15	-375.39	-493.86	946.64	-346.46	-595.73	1316.8	66.193	-534.32	1416	-27.133	-444.58	712.97	209.61	-653.03	69.064	62.272	-683.16	69.242	142.66	-599.91	985.28	-130.49	-503.37	781.39	-374.75	-785.9	201.21	78.068	-624.96	40.54	76.018	-731.48	188.59	132	-391.68	723.58	-248.33	-476.27	1560.3	-99.32	-623.48	977.6	2.818	-553.49	305.51	157.71	-540.96	291.03	100.02	-467.35	337.44	105.03	-544.7	1075.3	272.1	-605.67	235.94	93.788	-698.59	181.25	52.882	-381.27	253.06	-130.58	-314.33	26.996	-139.77	-481.92	825.9	-321.22	-450.39	845.6	252.1	-575.55	1060.6	185.79	-430.85	68.289	-136.33	-427.44	71.647	-51.261	-588.17	1085.3	-39.089	-488.76	28.784	-98.16	-555.78	1042.6	-216.27
